<?xml version="1.0" encoding="UTF-8" standalone="no"?>
<!DOCTYPE svg PUBLIC "-//W3C//DTD SVG 1.1//EN" "http://www.w3.org/Graphics/SVG/1.1/DTD/svg11.dtd">
<svg width="100%" height="100%" viewBox="0 0 28 28" version="1.1" xmlns="http://www.w3.org/2000/svg" xmlns:xlink="http://www.w3.org/1999/xlink" xml:space="preserve" xmlns:serif="http://www.serif.com/" style="fill-rule:evenodd;clip-rule:evenodd;stroke-linejoin:round;stroke-miterlimit:2;">
    <g transform="matrix(1,0,0,1,-42.7899,0)">
        <g id="forecast" transform="matrix(0.875,0,0,0.875,42.7899,260.75)">
            <rect x="0" y="-298" width="32" height="32" style="fill:none;"/>
            <g transform="matrix(1.14286,0,0,1.14286,-16,-314)">
                <path d="M41,19.505C41,17.018 38.982,15 36.495,15L19.505,15C17.018,15 15,17.018 15,19.505L15,36.495C15,38.982 17.018,41 19.505,41L36.495,41C38.982,41 41,38.982 41,36.495L41,19.505ZM39,19.505L39,36.495C39,37.878 37.878,39 36.495,39L19.505,39C18.122,39 17,37.878 17,36.495L17,19.505C17,18.122 18.122,17 19.505,17L36.495,17C37.878,17 39,18.122 39,19.505ZM25.8,34.052C26.064,34.364 26.796,35.12 28.296,35.12C29.952,35.12 31.056,34.136 31.056,32.78C31.056,31.712 30.168,31.064 29.604,30.824L29.604,30.788C30.144,30.536 30.84,29.84 30.84,28.916C30.84,27.572 29.676,26.72 28.284,26.72C26.94,26.72 26.028,27.776 26.028,27.776C25.944,27.86 25.932,28.004 26.028,28.088L26.616,28.64C26.724,28.736 26.856,28.724 26.94,28.628C27.144,28.388 27.528,28.052 28.152,28.052C28.764,28.052 29.316,28.496 29.316,29.156C29.316,29.768 28.812,30.26 27.828,30.26L27.156,30.26C27.012,30.26 26.928,30.344 26.928,30.5L26.928,31.256C26.928,31.4 27.024,31.496 27.156,31.496L27.828,31.496C28.908,31.496 29.484,32.06 29.484,32.684C29.484,33.344 28.86,33.812 28.212,33.812C27.48,33.812 26.772,33.212 26.736,33.164C26.64,33.068 26.532,33.068 26.424,33.164L25.812,33.752C25.74,33.836 25.728,33.968 25.8,34.052ZM22.5,23.5L33.5,23.5C34.052,23.5 34.5,23.052 34.5,22.5C34.5,21.948 34.052,21.5 33.5,21.5L22.5,21.5C21.948,21.5 21.5,21.948 21.5,22.5C21.5,23.052 21.948,23.5 22.5,23.5Z" style="fill:rgb(0,5,248);fill-rule:nonzero;"/>
            </g>
        </g>
    </g>
</svg>
