<?xml version="1.0" encoding="UTF-8" standalone="no"?>
<!DOCTYPE svg PUBLIC "-//W3C//DTD SVG 1.1//EN" "http://www.w3.org/Graphics/SVG/1.1/DTD/svg11.dtd">
<svg width="100%" height="100%" viewBox="0 0 28 28" version="1.1" xmlns="http://www.w3.org/2000/svg" xmlns:xlink="http://www.w3.org/1999/xlink" xml:space="preserve" xmlns:serif="http://www.serif.com/" style="fill-rule:evenodd;clip-rule:evenodd;stroke-linejoin:round;stroke-miterlimit:2;">
    <g transform="matrix(1,0,0,1,-134.031,0)">
        <g id="layers" transform="matrix(0.875,0,0,0.875,134.031,260.75)">
            <rect x="0" y="-298" width="32" height="32" style="fill:none;"/>
            <g transform="matrix(1.14286,0,0,1.14286,16,-282)">
                <g transform="matrix(1,0,0,1,-28,-28)">
                    <path d="M28,38.776L39.185,32.624C39.669,32.358 40.277,32.534 40.543,33.018C40.809,33.502 40.633,34.11 40.149,34.376L28.482,40.793C28.182,40.959 27.818,40.959 27.518,40.793L15.851,34.376C15.367,34.11 15.191,33.502 15.457,33.018C15.723,32.534 16.331,32.358 16.815,32.624L28,38.776ZM28,33.526L39.185,27.374C39.669,27.108 40.277,27.284 40.543,27.768C40.809,28.252 40.633,28.86 40.149,29.126L28.482,35.543C28.182,35.709 27.818,35.709 27.518,35.543L15.851,29.126C15.367,28.86 15.191,28.252 15.457,27.768C15.723,27.284 16.331,27.108 16.815,27.374L28,33.526ZM28.482,15.707C28.182,15.541 27.818,15.541 27.518,15.707L15.851,22.124C15.531,22.3 15.333,22.635 15.333,23C15.333,23.365 15.531,23.7 15.851,23.876L27.518,30.293C27.818,30.459 28.182,30.459 28.482,30.293L40.149,23.876C40.469,23.7 40.667,23.365 40.667,23C40.667,22.635 40.469,22.3 40.149,22.124L28.482,15.707ZM18.408,23L28,28.276L37.592,23L28,17.724L18.408,23Z" style="fill:rgb(0,5,248);"/>
                </g>
            </g>
        </g>
    </g>
</svg>
