<?xml version="1.0" encoding="UTF-8" standalone="no"?>
<!DOCTYPE svg PUBLIC "-//W3C//DTD SVG 1.1//EN" "http://www.w3.org/Graphics/SVG/1.1/DTD/svg11.dtd">
<svg width="100%" height="100%" viewBox="0 0 28 28" version="1.1" xmlns="http://www.w3.org/2000/svg" xmlns:xlink="http://www.w3.org/1999/xlink" xml:space="preserve" xmlns:serif="http://www.serif.com/" style="fill-rule:evenodd;clip-rule:evenodd;stroke-linejoin:round;stroke-miterlimit:2;">
    <g transform="matrix(1,0,0,1,-268.063,0)">
        <g id="radar" transform="matrix(0.875,0,0,0.875,268.063,260.75)">
            <rect x="0" y="-298" width="32" height="32" style="fill:none;"/>
            <g transform="matrix(1.14286,0,0,1.14286,16,-282)">
                <g transform="matrix(1,0,0,1,-28,-28)">
                    <path d="M33.974,18.762C32.254,17.647 30.203,17 28,17C21.925,17 17,21.925 17,28C17,33.532 21.083,38.111 26.401,38.885C26.947,38.964 27.326,39.472 27.246,40.018C27.167,40.564 26.659,40.943 26.112,40.864C19.828,39.949 15,34.539 15,28C15,20.82 20.82,15 28,15C30.997,15 33.756,16.014 35.955,17.717L35.976,17.734C36.42,18.062 36.514,18.689 36.186,19.133L30.66,26.613C30.877,27.028 31,27.5 31,28C31,29.656 29.656,31 28,31C26.344,31 25,29.656 25,28C25,26.344 26.344,25 28,25C28.421,25 28.821,25.087 29.185,25.243L30.992,22.798C30.111,22.29 29.089,22 28,22C24.686,22 22,24.686 22,28C22,30.833 23.964,33.209 26.605,33.837C27.142,33.965 27.474,34.505 27.346,35.042C27.218,35.578 26.679,35.911 26.142,35.783C22.62,34.945 20,31.778 20,28C20,23.582 23.582,20 28,20C29.535,20 30.968,20.432 32.186,21.181L33.974,18.762ZM30.202,40.814C32.141,40.483 33.932,39.723 35.477,38.636C35.928,38.318 36.036,37.694 35.719,37.243C35.401,36.791 34.777,36.683 34.325,37.001C33.02,37.92 31.505,38.563 29.866,38.843C29.322,38.935 28.956,39.453 29.048,39.997C29.141,40.541 29.658,40.907 30.202,40.814ZM38.152,36.121C39.034,35.02 39.74,33.773 40.229,32.421C40.416,31.902 40.147,31.328 39.628,31.14C39.109,30.953 38.536,31.222 38.348,31.741C37.934,32.884 37.337,33.94 36.591,34.871C36.246,35.302 36.315,35.932 36.746,36.277C37.177,36.622 37.807,36.552 38.152,36.121ZM30.301,35.664C30.849,35.5 31.372,35.278 31.863,35.007C32.347,34.74 32.522,34.131 32.255,33.648C31.988,33.165 31.379,32.989 30.896,33.256C30.528,33.459 30.137,33.625 29.727,33.748C29.198,33.907 28.898,34.465 29.056,34.993C29.215,35.522 29.773,35.822 30.301,35.664ZM34.595,32.53C34.818,32.205 35.018,31.863 35.192,31.506C35.435,31.01 35.229,30.411 34.733,30.169C34.237,29.927 33.637,30.133 33.395,30.629C33.265,30.896 33.115,31.153 32.947,31.396C32.634,31.851 32.749,32.474 33.204,32.787C33.659,33.1 34.282,32.984 34.595,32.53ZM40.971,28.873C40.99,28.584 41,28.293 41,28C41,27.706 40.99,27.415 40.971,27.126C40.934,26.575 40.458,26.157 39.907,26.194C39.356,26.231 38.939,26.708 38.975,27.258C38.992,27.503 39,27.751 39,28C39,28.249 38.992,28.496 38.976,28.74C38.939,29.291 39.356,29.768 39.907,29.804C40.458,29.841 40.935,29.424 40.971,28.873ZM35.999,28.138C36,28.092 36,28.046 36,28C36,27.448 35.552,27 35,27C34.448,27 34,27.448 34,28C34,28.035 34,28.069 33.999,28.104C33.99,28.656 34.43,29.112 34.982,29.121C35.534,29.13 35.989,28.69 35.999,28.138ZM29,28C29,28.552 28.552,29 28,29C27.448,29 27,28.552 27,28C27,27.448 27.448,27 28,27C28.552,27 29,27.448 29,28Z" style="fill:rgb(0,5,248);"/>
                </g>
            </g>
        </g>
    </g>
</svg>
