<?xml version="1.0" encoding="UTF-8" standalone="no"?>
<!DOCTYPE svg PUBLIC "-//W3C//DTD SVG 1.1//EN" "http://www.w3.org/Graphics/SVG/1.1/DTD/svg11.dtd">
<svg width="100%" height="100%" viewBox="0 0 28 28" version="1.1" xmlns="http://www.w3.org/2000/svg" xmlns:xlink="http://www.w3.org/1999/xlink" xml:space="preserve" xmlns:serif="http://www.serif.com/" style="fill-rule:evenodd;clip-rule:evenodd;stroke-linejoin:round;stroke-miterlimit:2;">
    <g transform="matrix(1,0,0,1,-312.74,0)">
        <g id="settings" transform="matrix(0.875,0,0,0.875,312.74,260.75)">
            <rect x="0" y="-298" width="32" height="32" style="fill:none;"/>
            <g transform="matrix(1.14286,0,0,1.14286,16,-282)">
                <g transform="matrix(1,0,0,1,-28,-28)">
                    <g transform="matrix(1,0,0,1,16,16)">
                        <path d="M7.554,3.006L7.928,0.379L7.938,0.319C8.097,-0.451 8.743,-1 9.535,-1L14.472,-1C15.267,-1 15.906,-0.437 16.065,0.285L16.073,0.322L16.453,2.985C16.911,3.201 17.344,3.451 17.758,3.731L20.337,2.722L20.356,2.715C21.089,2.461 21.871,2.724 22.297,3.396L24.772,7.548L24.758,7.525C25.2,8.223 24.999,9.139 24.383,9.63L22.206,11.28C22.226,11.518 22.239,11.756 22.239,12C22.239,12.231 22.232,12.469 22.214,12.707L24.373,14.343L24.432,14.391C25.028,14.918 25.192,15.77 24.758,16.455L24.772,16.432L22.29,20.595C21.871,21.256 21.089,21.519 20.337,21.258L17.757,20.248C17.341,20.527 16.905,20.776 16.453,20.99L16.079,23.621L16.068,23.681C15.91,24.451 15.263,25 14.472,25L9.535,25C8.74,25 8.1,24.437 7.941,23.715L7.933,23.678L7.554,21.015C7.095,20.799 6.662,20.549 6.248,20.269L3.669,21.278L3.651,21.285C2.918,21.539 2.135,21.276 1.709,20.604L-0.766,16.452L-0.752,16.475C-1.187,15.788 -1.044,14.939 -0.446,14.411L-0.418,14.386L1.78,12.72C1.76,12.482 1.747,12.244 1.747,12C1.747,11.752 1.76,11.51 1.784,11.268L-0.367,9.637L-0.425,9.589C-1.021,9.062 -1.186,8.21 -0.752,7.525L-0.766,7.548L1.716,3.385C2.135,2.724 2.918,2.461 3.669,2.722L6.247,3.731C6.658,3.457 7.099,3.216 7.554,3.006ZM14.15,1L9.859,1L9.374,4.411L8.841,4.627C8.186,4.892 7.547,5.225 7.001,5.649L6.553,5.999L3.256,4.708L1.134,8.265L3.929,10.383L3.838,10.972C3.784,11.321 3.747,11.652 3.747,12C3.747,12.365 3.786,12.712 3.824,13.078L3.881,13.637L1.128,15.724L3.256,19.292L6.543,18.005L6.989,18.341C7.555,18.767 8.156,19.123 8.832,19.39L9.373,19.603L9.857,23L14.147,23L14.632,19.589L15.166,19.373C15.826,19.106 16.449,18.749 17.018,18.321L17.464,17.985L20.751,19.272L22.872,15.715L20.074,13.594L20.17,13C20.223,12.672 20.239,12.327 20.239,12C20.239,11.635 20.2,11.288 20.162,10.922L20.105,10.363L22.872,8.266L20.75,4.708L17.464,5.995L17.018,5.659C16.452,5.233 15.85,4.877 15.175,4.61L14.633,4.397L14.15,1ZM12.174,7.003C9.428,6.907 7.099,9.079 7.003,11.826C6.907,14.572 9.079,16.901 11.826,16.997C14.572,17.093 16.901,14.921 16.997,12.174C17.093,9.428 14.921,7.099 12.174,7.003ZM12.105,9.002C13.753,9.059 15.056,10.457 14.998,12.105C14.941,13.753 13.543,15.056 11.895,14.998C10.247,14.941 8.944,13.543 9.002,11.895C9.059,10.247 10.457,8.944 12.105,9.002Z" style="fill:rgb(0,4,247);"/>
                    </g>
                </g>
            </g>
        </g>
    </g>
</svg>
